<svg width="131" height="38" viewBox="0 0 131 38" fill="none" xmlns="http://www.w3.org/2000/svg">
<circle cx="19" cy="19" r="19" fill="#F0CA3B"/>
<path d="M24.0742 29V12.1953H28.9258C35.1211 12.1953 38.2188 14.9258 38.2188 20.3867C38.2188 22.9805 37.3594 25.0664 35.6406 26.6445C33.9219 28.2148 31.6172 29 28.7266 29H24.0742ZM26.8516 14.5625V26.6445H29.0781C31.0391 26.6445 32.5625 26.1055 33.6484 25.0273C34.7422 23.9492 35.2891 22.4258 35.2891 20.457C35.2891 16.5273 33.2539 14.5625 29.1836 14.5625H26.8516ZM47.957 19.5898C47.6289 19.332 47.1562 19.2031 46.5391 19.2031C45.7344 19.2031 45.0625 19.5664 44.5234 20.293C43.9844 21.0195 43.7148 22.0078 43.7148 23.2578V29H40.9961V17H43.7148V19.4727H43.7617C44.0273 18.6289 44.4336 17.9727 44.9805 17.5039C45.5352 17.0273 46.1523 16.7891 46.832 16.7891C47.3242 16.7891 47.6992 16.8633 47.957 17.0117V19.5898ZM59.0898 29H56.4531V27.125H56.4062C55.5781 28.5625 54.3633 29.2812 52.7617 29.2812C51.582 29.2812 50.6562 28.9609 49.9844 28.3203C49.3203 27.6797 48.9883 26.832 48.9883 25.7773C48.9883 23.5117 50.293 22.1914 52.9023 21.8164L56.4648 21.3125C56.4648 19.6016 55.6523 18.7461 54.0273 18.7461C52.5977 18.7461 51.3086 19.2383 50.1602 20.2227V17.8438C51.4258 17.0938 52.8867 16.7188 54.543 16.7188C57.5742 16.7188 59.0898 18.2109 59.0898 21.1953V29ZM56.4648 23.1055L53.9453 23.457C53.1641 23.5586 52.5742 23.75 52.1758 24.0312C51.7852 24.3047 51.5898 24.7891 51.5898 25.4844C51.5898 25.9922 51.7695 26.4102 52.1289 26.7383C52.4961 27.0586 52.9844 27.2188 53.5938 27.2188C54.4219 27.2188 55.1055 26.9297 55.6445 26.3516C56.1914 25.7656 56.4648 25.0312 56.4648 24.1484V23.1055ZM73.3398 28.0391C73.3398 32.4453 71.125 34.6484 66.6953 34.6484C65.1328 34.6484 63.7695 34.3867 62.6055 33.8633V31.3789C63.918 32.1289 65.1641 32.5039 66.3438 32.5039C69.1953 32.5039 70.6211 31.1016 70.6211 28.2969V26.9844H70.5742C69.6758 28.5156 68.3242 29.2812 66.5195 29.2812C65.0586 29.2812 63.8789 28.75 62.9805 27.6875C62.0898 26.6172 61.6445 25.1836 61.6445 23.3867C61.6445 21.3477 62.125 19.7266 63.0859 18.5234C64.0469 17.3203 65.3672 16.7188 67.0469 16.7188C68.6328 16.7188 69.8086 17.3672 70.5742 18.6641H70.6211V17H73.3398V28.0391ZM70.6445 23.5039V21.9453C70.6445 21.1016 70.3633 20.3828 69.8008 19.7891C69.2461 19.1875 68.5508 18.8867 67.7148 18.8867C66.6836 18.8867 65.875 19.2695 65.2891 20.0352C64.7109 20.793 64.4219 21.8555 64.4219 23.2227C64.4219 24.4023 64.6992 25.3477 65.2539 26.0586C65.8164 26.7617 66.5586 27.1133 67.4805 27.1133C68.418 27.1133 69.1797 26.7773 69.7656 26.1055C70.3516 25.4258 70.6445 24.5586 70.6445 23.5039ZM82.1992 29.2812C80.3477 29.2812 78.8672 28.7227 77.7578 27.6055C76.6562 26.4805 76.1055 24.9922 76.1055 23.1406C76.1055 21.125 76.6797 19.5508 77.8281 18.418C78.9844 17.2852 80.5391 16.7188 82.4922 16.7188C84.3672 16.7188 85.8281 17.2695 86.875 18.3711C87.9219 19.4727 88.4453 21 88.4453 22.9531C88.4453 24.8672 87.8789 26.4023 86.7461 27.5586C85.6211 28.707 84.1055 29.2812 82.1992 29.2812ZM82.3281 18.8867C81.2656 18.8867 80.4258 19.2578 79.8086 20C79.1914 20.7422 78.8828 21.7656 78.8828 23.0703C78.8828 24.3281 79.1953 25.3203 79.8203 26.0469C80.4453 26.7656 81.2812 27.125 82.3281 27.125C83.3984 27.125 84.2188 26.7695 84.7891 26.0586C85.3672 25.3477 85.6562 24.3359 85.6562 23.0234C85.6562 21.7031 85.3672 20.6836 84.7891 19.9648C84.2188 19.2461 83.3984 18.8867 82.3281 18.8867ZM101.91 29H99.1914V22.2383C99.1914 19.9961 98.3984 18.875 96.8125 18.875C95.9844 18.875 95.3008 19.1875 94.7617 19.8125C94.2227 20.4297 93.9531 21.2109 93.9531 22.1562V29H91.2227V17H93.9531V18.9922H94C94.8984 17.4766 96.1953 16.7188 97.8906 16.7188C99.1953 16.7188 100.191 17.1445 100.879 17.9961C101.566 18.8398 101.91 20.0625 101.91 21.6641V29ZM112.023 13.4492C111.656 13.2383 111.238 13.1328 110.77 13.1328C109.449 13.1328 108.789 13.8789 108.789 15.3711V17H111.578V19.1328H108.801V29H106.082V19.1328H104.031V17H106.082V15.0547C106.082 13.7891 106.496 12.793 107.324 12.0664C108.152 11.332 109.188 10.9648 110.43 10.9648C111.102 10.9648 111.633 11.0391 112.023 11.1875V13.4492ZM116.242 29H113.512V11.2344H116.242V29ZM130.188 17L124.773 30.9219C123.648 33.4062 122.07 34.6484 120.039 34.6484C119.469 34.6484 118.992 34.5977 118.609 34.4961V32.2344C119.039 32.375 119.43 32.4453 119.781 32.4453C120.797 32.4453 121.555 31.9453 122.055 30.9453L122.863 28.9766L118.094 17H121.105L123.965 25.7188C123.996 25.8281 124.066 26.1172 124.176 26.5859H124.234C124.273 26.4062 124.344 26.125 124.445 25.7422L127.445 17H130.188Z" fill="#1E0C04"/>
</svg>
