<svg width="20" height="20" viewBox="0 0 20 20" fill="none" xmlns="http://www.w3.org/2000/svg">
<path d="M17.875 20H2.125C1.50368 20 1 19.5182 1 18.9239V8.60881C1 8.32344 1.11863 8.04978 1.32962 7.84803L9.20462 0.315595C9.41564 0.113535 9.70197 0 10.0006 0C10.2991 0 10.5855 0.113535 10.7965 0.315595L18.6715 7.84803C18.8827 8.04956 19.001 8.32345 19 8.60881V18.9239C19 19.5182 18.4963 20 17.875 20ZM7.75 12.4676H12.25V17.8479H16.75V9.0543L10 2.59792L3.25 9.0543V17.8479H7.75V12.4676Z" fill="white"/>
</svg>
