<svg width="20" height="16" viewBox="0 0 20 16" fill="none" xmlns="http://www.w3.org/2000/svg">
<path d="M19.0213 5.63556C18.4823 5.63556 18.0449 6.0536 18.0449 6.56868V11.6635C18.0449 12.6265 17.2247 13.4103 16.217 13.4103H3.78083C2.77313 13.4103 1.95291 12.6265 1.95291 11.6635V3.80292L8.56937 9.69275C8.97167 10.0473 9.48333 10.2265 9.9989 10.2265C10.5145 10.2265 11.0261 10.0473 11.4284 9.69275L19.6892 2.33979C19.9822 2.07852 20.0798 1.67168 19.9314 1.3171C19.783 0.958782 19.4236 0.727369 19.0213 0.727369H0.976455C0.574155 0.723637 0.21482 0.958782 0.0663989 1.3171C0.0234349 1.42907 0 1.54478 0 1.65675V1.66049V11.6598C0 13.6529 1.69513 15.2728 3.78083 15.2728H16.217C18.3027 15.2728 19.9978 13.6529 19.9978 11.6598V6.56868C19.9978 6.04986 19.5603 5.63556 19.0213 5.63556ZM16.5411 2.58987L10.0965 8.32666C10.0419 8.37519 9.95593 8.37519 9.90125 8.32666L3.45665 2.58987H16.5411Z" fill="white"/>
</svg>
