<svg width="16" height="20" viewBox="0 0 16 20" fill="none" xmlns="http://www.w3.org/2000/svg">
<path d="M15.3329 1.99994C13.2716 2.00007 11.249 1.4401 9.48153 0.379935L9.00592 0.0952678C8.90471 0.0344989 8.78918 0.00166452 8.67113 0.000118289C8.55307 -0.00142794 8.43672 0.0283693 8.33395 0.0864668C8.23119 0.144564 8.1457 0.22888 8.0862 0.330803C8.02671 0.432726 7.99535 0.548604 7.99533 0.666602V12.074C7.23821 11.3023 6.23636 10.8175 5.16113 10.7025C4.08589 10.5875 3.00408 10.8494 2.10071 11.4435C1.19735 12.0375 0.528549 12.9268 0.208708 13.9591C-0.111132 14.9915 -0.0621459 16.1029 0.34729 17.1032C0.756725 18.1035 1.50117 18.9305 2.45331 19.4429C3.40544 19.9552 4.50611 20.1211 5.56706 19.912C6.628 19.7029 7.58332 19.132 8.26962 18.2968C8.95591 17.4616 9.33054 16.414 9.32944 15.3333V5.82661C11.1758 6.81564 13.2381 7.33321 15.3329 7.33328C15.5099 7.33328 15.6795 7.26304 15.8046 7.13802C15.9297 7.01299 16 6.84342 16 6.66661V2.66661C16 2.48979 15.9297 2.32023 15.8046 2.1952C15.6795 2.07018 15.5099 1.99994 15.3329 1.99994Z" fill="white"/>
</svg>
