<svg width="16" height="20" viewBox="0 0 16 20" fill="none" xmlns="http://www.w3.org/2000/svg">
<path d="M8 20.0001C6.89543 20.0001 6 19.1046 6 18.0001H10C10 19.1046 9.10457 20.0001 8 20.0001ZM16 17.0001H0V15.0001L2 14.0001V8.50006C2 5.03806 3.421 2.79306 6 2.18006V6.10352e-05H10V2.18006C12.579 2.79206 14 5.03606 14 8.50006V14.0001L16 15.0001V17.0001ZM8 3.75006C6.77967 3.67126 5.60278 4.21734 4.875 5.20006C4.25255 6.18462 3.94714 7.33644 4 8.50006V15.0001H12V8.50006C12.0528 7.33645 11.7474 6.18464 11.125 5.20006C10.3972 4.21734 9.22033 3.67126 8 3.75006Z" fill="white"/>
</svg>
