<svg width="20" height="20" viewBox="0 0 20 20" fill="none" xmlns="http://www.w3.org/2000/svg">
<path d="M19.4111 11.5897L18.5527 10.9048C17.9646 10.4356 17.9657 9.56358 18.5527 9.09534L19.4111 8.41041C20.0219 7.92295 20.1782 7.08709 19.7826 6.42283L18.0876 3.57729C17.6919 2.91307 16.8667 2.62635 16.1259 2.89533L15.0847 3.27342C14.3715 3.53233 13.5929 3.09565 13.4679 2.36869L13.2851 1.30565C13.1551 0.549163 12.4863 6.10352e-05 11.695 6.10352e-05H8.30503C7.5137 6.10352e-05 6.84493 0.549163 6.71487 1.30569L6.53206 2.36869C6.40685 3.09694 5.62716 3.5319 4.91531 3.27346L3.87411 2.89533C3.13324 2.62635 2.30817 2.91311 1.91245 3.57729L0.217469 6.4228C-0.178176 7.08698 -0.0219654 7.92287 0.588972 8.41037L1.44736 9.09529C2.03545 9.56451 2.03428 10.4365 1.44736 10.9047L0.588932 11.5897C-0.0219653 12.0772 -0.178216 12.9131 0.217428 13.5772L1.91245 16.4228C2.30813 17.087 3.13304 17.3737 3.87411 17.1047L4.91527 16.7267C5.62857 16.4676 6.40705 16.9046 6.53202 17.6314L6.71483 18.6944C6.84493 19.451 7.5137 20.0001 8.30499 20.0001H11.695C12.4863 20.0001 13.155 19.451 13.2851 18.6944L13.4679 17.6315C13.5931 16.9034 14.3727 16.4681 15.0847 16.7267L16.1259 17.1048C16.8669 17.3738 17.6919 17.0871 18.0876 16.4228L19.7826 13.5772C20.1782 12.9131 20.0219 12.0772 19.4111 11.5897ZM16.6915 15.6416L15.6503 15.2635C13.9858 14.6592 12.1694 15.6787 11.8778 17.3746L11.695 18.4376H8.30503L8.12222 17.3746C7.83007 15.6755 6.01096 14.6603 4.34975 15.2635L3.30855 15.6416L1.61357 12.796L2.47196 12.1111C3.8442 11.0162 3.84134 8.98166 2.47196 7.88901L1.61357 7.20408L3.30859 4.35854L4.34975 4.73662C6.01422 5.34092 7.83063 4.32139 8.12222 2.62557L8.30499 1.56256H11.695L11.8778 2.62557C12.1699 4.32487 13.9891 5.33967 15.6502 4.73662L16.6914 4.35854L18.3868 7.20369C18.3868 7.20369 18.3867 7.20381 18.3864 7.20405L17.528 7.88897C16.1558 8.98381 16.1586 11.0184 17.528 12.1111L18.3864 12.796L16.6915 15.6416ZM10 6.14588C7.80738 6.14588 6.02353 7.87487 6.02353 10.0001C6.02353 12.1253 7.80738 13.8542 10 13.8542C12.1926 13.8542 13.9765 12.1253 13.9765 10.0001C13.9765 7.87487 12.1926 6.14588 10 6.14588ZM10 12.2917C8.69628 12.2917 7.63561 11.2637 7.63561 10.0001C7.63561 8.73643 8.69628 7.70838 10 7.70838C11.3037 7.70838 12.3644 8.73643 12.3644 10.0001C12.3644 11.2637 11.3037 12.2917 10 12.2917Z" fill="white" stroke="white" stroke-width="0.4"/>
</svg>
